<svg aria-hidden="true" class="sc-icon__svg" width="164" height="110" viewBox="0 0 164 110" fill="none" xmlns="http://www.w3.org/2000/svg"><path fill-rule="evenodd" clip-rule="evenodd" d="M100.1 2.06827C89.5507 2.7355 77.8389 7.46844 71.4323 16.1741C64.3972 25.7301 58.4685 31.7828 49.4872 36.1861C40.9118 40.3929 23.9886 44.2015 17.1483 57.1795C8.6301 73.339 19.6775 89.6563 38.1237 98.1036C58.7366 107.545 95.4272 113.078 123.893 95.0864C151.724 77.4943 153.388 48.6317 146.767 32.8394C137.586 10.9422 114.536 1.15328 100.1 2.06827" fill="black" fill-opacity="0.04"></path><path fill-rule="evenodd" clip-rule="evenodd" d="M36.2953 82.6487C36.2953 82.6487 36.2949 82.649 37.8801 84.4839C39.4654 86.3189 39.4649 86.3193 39.4649 86.3193L39.4624 86.3214L39.4573 86.3259L39.4406 86.3402C39.4266 86.3522 39.407 86.3689 39.382 86.3901C39.3321 86.4325 39.2605 86.4929 39.169 86.5691C38.9861 86.7215 38.7232 86.9373 38.3945 87.1991C37.7386 87.7214 36.8135 88.4319 35.7338 89.1869C33.6404 90.6505 30.7197 92.4579 27.9793 93.2242C24.6064 94.1674 21.5755 93.1245 19.4046 92.3775C19.2011 92.3074 19.0052 92.24 18.8172 92.1771C16.4127 91.3718 15.066 91.1375 13.5824 92.0378C12.2609 92.8399 11.9805 94.1628 11.6838 97.0775C11.6744 97.1696 11.665 97.2639 11.6554 97.3604C11.4115 99.8095 11.0327 103.614 7.47644 105.772L4.96031 101.626C6.28188 100.824 6.56226 99.501 6.85897 96.5863C6.86834 96.4943 6.87774 96.3999 6.88735 96.3034C7.13122 93.8544 7.51004 90.0501 11.0663 87.8919C14.6007 85.7469 17.9285 86.765 20.3572 87.5783C20.4914 87.6233 20.6232 87.6676 20.7527 87.7111C23.1721 88.5245 24.8092 89.0749 26.6732 88.5537C28.5758 88.0216 30.9321 86.6265 32.9549 85.2122C33.9332 84.5282 34.7761 83.8809 35.3735 83.4052C35.6715 83.1679 35.9067 82.9747 36.0652 82.8427C36.1444 82.7767 36.2043 82.7261 36.2432 82.6931C36.2626 82.6766 36.2768 82.6645 36.2855 82.6571L36.2944 82.6494L36.2953 82.6487Z" fill="white"></path><path d="M7.47644 105.772C11.0327 103.614 11.4115 99.8095 11.6554 97.3604C11.665 97.2639 11.6744 97.1696 11.6838 97.0775C11.9805 94.1628 12.2609 92.8399 13.5824 92.0378C15.066 91.1375 16.4127 91.3718 18.8172 92.1771C19.0052 92.24 19.2011 92.3074 19.4046 92.3775C21.5755 93.1245 24.6064 94.1674 27.9793 93.2242C30.7197 92.4579 33.6404 90.6505 35.7338 89.1869C36.8135 88.4319 37.7386 87.7214 38.3945 87.1991C38.7232 86.9373 38.9861 86.7215 39.169 86.5691C39.2605 86.4929 39.3321 86.4325 39.382 86.3901C39.407 86.3689 39.4266 86.3522 39.4406 86.3402L39.4573 86.3259L39.4624 86.3214L39.4649 86.3193C39.4649 86.3193 39.4654 86.3189 37.8801 84.4839C36.2949 82.649 36.2953 82.6487 36.2953 82.6487L36.2944 82.6494L36.2855 82.6571C36.2768 82.6645 36.2626 82.6766 36.2432 82.6931C36.2043 82.7261 36.1444 82.7767 36.0652 82.8427C35.9067 82.9747 35.6715 83.1679 35.3735 83.4052C34.7761 83.8809 33.9332 84.5282 32.9549 85.2122C30.9321 86.6265 28.5758 88.0216 26.6732 88.5537C24.8092 89.0749 23.1721 88.5245 20.7527 87.7111C20.6232 87.6676 20.4914 87.6233 20.3572 87.5783C19.3081 87.227 18.0913 86.8375 16.7625 86.6812M4.96031 101.626C6.28188 100.824 6.56226 99.501 6.85897 96.5863C6.86834 96.4943 6.87774 96.3999 6.88735 96.3034C7.13122 93.8544 7.51004 90.0501 11.0663 87.8919C11.6732 87.5236 12.274 87.2485 12.8652 87.0497" stroke="#333333" stroke-width="1.5"></path><path fill-rule="evenodd" clip-rule="evenodd" d="M127.8 33.4832C127.8 33.4832 127.801 33.4828 126.216 31.6479C124.63 29.813 124.631 29.8125 124.631 29.8125L124.633 29.8104L124.638 29.806L124.655 29.7916C124.669 29.7797 124.689 29.763 124.714 29.7417C124.764 29.6993 124.835 29.6389 124.927 29.5627C125.11 29.4104 125.372 29.1945 125.701 28.9328C126.357 28.4104 127.282 27.6999 128.362 26.945C130.455 25.4814 133.376 23.674 136.116 22.9076C139.489 21.9644 142.52 23.0074 144.691 23.7544C144.895 23.8244 145.091 23.8918 145.279 23.9548C147.683 24.76 149.03 24.9944 150.513 24.094C151.835 23.292 152.115 21.969 152.412 19.0544C152.421 18.9623 152.431 18.8679 152.44 18.7714C152.684 16.3224 153.063 12.5181 156.619 10.3599L159.135 14.5059C157.814 15.3079 157.533 16.6308 157.237 19.5455C157.227 19.6376 157.218 19.7319 157.208 19.8284C156.964 22.2775 156.586 26.0817 153.029 28.24C149.495 30.3849 146.167 29.3668 143.738 28.5535C143.604 28.5086 143.473 28.4643 143.343 28.4207C140.924 27.6073 139.286 27.0569 137.423 27.5782C135.52 28.1102 133.164 29.5053 131.141 30.9196C130.162 31.6036 129.32 32.2509 128.722 32.7266C128.424 32.964 128.189 33.1572 128.03 33.2892C127.951 33.3551 127.891 33.4057 127.852 33.4387C127.833 33.4552 127.819 33.4673 127.81 33.4748L127.801 33.4824L127.8 33.4832Z" fill="white"></path><path d="M156.619 10.3599C153.063 12.5181 152.684 16.3224 152.44 18.7714C152.431 18.8679 152.421 18.9623 152.412 19.0544C152.115 21.969 151.835 23.292 150.513 24.094C149.03 24.9944 147.683 24.76 145.279 23.9548C145.091 23.8918 144.895 23.8244 144.691 23.7544C142.52 23.0074 139.489 21.9644 136.116 22.9076C133.376 23.674 130.455 25.4814 128.362 26.945C127.282 27.6999 126.357 28.4104 125.701 28.9328C125.372 29.1945 125.11 29.4104 124.927 29.5627C124.835 29.6389 124.764 29.6993 124.714 29.7417C124.689 29.763 124.669 29.7797 124.655 29.7916L124.638 29.806L124.633 29.8104L124.631 29.8125C124.631 29.8125 124.63 29.813 126.216 31.6479C127.801 33.4828 127.8 33.4832 127.8 33.4832L127.801 33.4824L127.81 33.4748C127.819 33.4673 127.833 33.4552 127.852 33.4387C127.891 33.4057 127.951 33.3551 128.03 33.2892C128.189 33.1572 128.424 32.964 128.722 32.7266C129.32 32.2509 130.162 31.6036 131.141 30.9196C133.164 29.5053 135.52 28.1102 137.423 27.5782C139.286 27.0569 140.924 27.6073 143.343 28.4207C143.473 28.4643 143.604 28.5086 143.738 28.5535C144.536 28.8207 145.431 29.11 146.399 29.302M159.135 14.5059C157.814 15.3079 157.533 16.6308 157.237 19.5455C157.227 19.6376 157.218 19.7319 157.208 19.8284C157.055 21.3709 156.848 23.451 155.827 25.3188M150.455 29.302C151.294 29.1075 152.155 28.7705 153.029 28.24C153.108 28.1923 153.185 28.1438 153.261 28.0945" stroke="#333333" stroke-width="1.5"></path><path d="M67.2252 52.6425C66.3474 51.196 66.8083 49.3118 68.2548 48.434L79.4617 41.6327C80.9081 40.7549 82.7923 41.2158 83.6702 42.6622V42.6622C84.548 44.1087 84.087 45.9929 82.6406 46.8707L71.4336 53.672C69.9872 54.5499 68.103 54.0889 67.2252 52.6425V52.6425Z" fill="white" stroke="#333333" stroke-width="1.5"></path><line x1="80.3779" y1="37.5214" x2="78.1368" y2="33.8285" stroke="#333333" stroke-width="1.5" stroke-linecap="round"></line><line x1="86.4552" y1="39.7627" x2="90.148" y2="37.5216" stroke="#333333" stroke-width="1.5" stroke-linecap="round"></line><line x1="83.8501" y1="37.5493" x2="85.2505" y2="33.4629" stroke="#333333" stroke-width="1.5" stroke-linecap="round"></line><path d="M79.9779 73.6544C80.8558 75.1009 82.74 75.5618 84.1864 74.684L95.3933 67.8827C96.8398 67.0049 97.3007 65.1207 96.4229 63.6742V63.6742C95.5451 62.2278 93.6609 61.7668 92.2145 62.6446L81.0075 69.446C79.5611 70.3238 79.1001 72.208 79.9779 73.6544V73.6544Z" fill="white" stroke="#333333" stroke-width="1.5"></path><path d="M93.8828 27.8527L113.165 16.1505C117.179 13.7149 122.406 14.9939 124.842 19.0071L136.376 38.0133C138.812 42.0265 137.533 47.2542 133.52 49.6897L114.237 61.392L93.8828 27.8527Z" fill="#EEEEEE" stroke="white" stroke-width="3"></path><path d="M91.8223 27.3486L112.387 14.8681C117.109 12.0028 123.259 13.5074 126.124 18.2288L137.659 37.235C140.524 41.9564 139.019 48.1067 134.298 50.9721L113.733 63.4526L91.8223 27.3486Z" stroke="#333333" stroke-width="1.5"></path><path d="M32.7212 81.9227C32.1482 80.9784 32.4491 79.7483 33.3934 79.1753L47.9389 70.3478L55.3304 82.5274L40.785 91.3548C39.8407 91.9279 38.6106 91.627 38.0375 90.6827L32.7212 81.9227Z" fill="#EEEEEE" stroke="#333333" stroke-width="1.5"></path><path d="M56.9373 53.306L74.602 82.4131L65.1922 88.1238C64.3144 88.6565 63.247 88.7769 62.2726 88.4531L50.7925 84.638L43.9718 73.3992L45.8876 61.4544C46.0502 60.4406 46.6498 59.5493 47.5275 59.0166L56.9373 53.306Z" fill="#EEEEEE" stroke="white" stroke-width="3"></path><path d="M42.4035 73.7071L44.4065 61.2179C44.6388 59.7695 45.4953 58.4963 46.7493 57.7352L57.4414 51.2464L76.6625 82.9182L65.9705 89.4071C64.7165 90.1681 63.1916 90.3401 61.7996 89.8775L49.7962 85.8886L42.4035 73.7071Z" stroke="#333333" stroke-width="1.5"></path><rect x="49.8467" y="47.5205" width="17.3841" height="51.2973" rx="5" transform="rotate(-31.2529 49.8467 47.5205)" fill="white"></rect><rect x="49.8467" y="47.5205" width="17.3841" height="51.2973" rx="5" transform="rotate(-31.2529 49.8467 47.5205)" fill="white" stroke="#333333" stroke-width="1.5"></rect><path d="M116.761 28.3412C116.017 27.1144 116.408 25.5163 117.634 24.7718V24.7718C118.861 24.0273 120.459 24.4182 121.204 25.645L128.044 36.9165C128.789 38.1433 128.398 39.7413 127.171 40.4859V40.4859C125.944 41.2304 124.346 40.8394 123.602 39.6126L116.761 28.3412Z" stroke="#333333" stroke-width="1.5"></path><rect x="87.917" y="24.417" width="17.3841" height="51.2973" rx="5" transform="rotate(-31.2529 87.917 24.417)" fill="white"></rect><rect x="87.917" y="24.417" width="17.3841" height="51.2973" rx="5" transform="rotate(-31.2529 87.917 24.417)" stroke="#333333" stroke-width="1.5"></rect><line x1="38.9273" y1="75.8853" x2="46.3189" y2="88.0649" stroke="#333333" stroke-width="1.5"></line><line x1="35.231" y1="78.146" x2="42.6226" y2="90.3256" stroke="#333333" stroke-width="1.5"></line><line x1="0.75" y1="-0.75" x2="5.06969" y2="-0.75" transform="matrix(0.202929 0.979193 0.979193 -0.202929 98.0312 69.9102)" stroke="#333333" stroke-width="1.5" stroke-linecap="round"></line><line x1="0.75" y1="-0.75" x2="5.06969" y2="-0.75" transform="matrix(0.979193 -0.202929 -0.202929 -0.979193 99.4824 64.4326)" stroke="#333333" stroke-width="1.5" stroke-linecap="round"></line><line x1="0.75" y1="-0.75" x2="5.06969" y2="-0.75" transform="matrix(0.881947 0.471349 0.471349 -0.881947 99.6631 67.3945)" stroke="#333333" stroke-width="1.5" stroke-linecap="round"></line><rect width="7" height="6" transform="translate(11.293 83.519)" fill="white" fill-opacity="0.01"></rect></svg>